HIERARCHY
ROOT Hips
{
	OFFSET -3.958830 18.904000 13.208200
	CHANNELS 6 Xposition Yposition Zposition Zrotation Yrotation Xrotation 
	JOINT LHipJoint
	{
		OFFSET 0.000000 0.000000 0.000000
		CHANNELS 3 Zrotation Yrotation Xrotation
		JOINT LeftUpLeg
		{
			OFFSET 1.800000 -1.400000 0.085000
			CHANNELS 3 Zrotation Yrotation Xrotation
			JOINT LeftLeg
			{
				OFFSET 2.215000 -6.000000 0.000000
				CHANNELS 3 Zrotation Yrotation Xrotation
				JOINT LeftFoot
				{
					OFFSET 2.500000 -6.900000 0.000000
					CHANNELS 3 Zrotation Yrotation Xrotation
					JOINT LeftToeBase
					{
						OFFSET 0.200000 -0.500000 1.950000
						CHANNELS 3 Zrotation Yrotation Xrotation
						End Site
						{
							OFFSET 0.000000 0.000000 0.000000
						}
					}
				}
			}
		}
	}
	JOINT RHipJoint
	{
		OFFSET 0.000000 0.000000 0.000000
		CHANNELS 3 Zrotation Yrotation Xrotation
		JOINT RightUpLeg
		{
			OFFSET -1.800000 -1.400000 0.085000
			CHANNELS 3 Zrotation Yrotation Xrotation
			JOINT RightLeg
			{
				OFFSET -2.215000 -6.000000 0.000000
				CHANNELS 3 Zrotation Yrotation Xrotation
				JOINT RightFoot
				{
					OFFSET -2.500000 -6.900000 0.000000
					CHANNELS 3 Zrotation Yrotation Xrotation
					JOINT RightToeBase
					{
						OFFSET -0.200000 -0.500000 1.950000
						CHANNELS 3 Zrotation Yrotation Xrotation
						End Site
						{
							OFFSET 0.000000 0.000000 0.000000
						}
					}
				}
			}
		}
	}
	JOINT LowerBack
	{
		OFFSET 0.000000 0.000000 0.000000
		CHANNELS 3 Zrotation Yrotation Xrotation
		JOINT Spine
		{
			OFFSET -0.087000 1.940000 -0.288900
			CHANNELS 3 Zrotation Yrotation Xrotation
			JOINT Spine1
			{
				OFFSET 0.000000 1.950000 0.060000
				CHANNELS 3 Zrotation Yrotation Xrotation
				JOINT Neck
				{
					OFFSET 0.000000 0.000000 0.000000
					CHANNELS 3 Zrotation Yrotation Xrotation
					JOINT Neck1
					{
						OFFSET 0.000000 1.600000 0.340000
						CHANNELS 3 Zrotation Yrotation Xrotation
						JOINT Head
						{
							OFFSET 0.000000 1.667000 -0.240000
							CHANNELS 3 Zrotation Yrotation Xrotation
							End Site
							{
								OFFSET 0.000000 0.000000 0.000000
							}
						}
					}
				}
				JOINT LeftShoulder
				{
					OFFSET 0.000000 0.000000 0.000000
					CHANNELS 3 Zrotation Yrotation Xrotation
					JOINT LeftArm
					{
						OFFSET 2.700000 1.550000 -0.730000
						CHANNELS 3 Zrotation Yrotation Xrotation
						JOINT LeftForeArm
						{
							OFFSET 5.450000 0.000000 0.000000
							CHANNELS 3 Zrotation Yrotation Xrotation
							JOINT LeftHand
							{
								OFFSET 3.450000 0.000000 0.000000
								CHANNELS 3 Zrotation Yrotation Xrotation
								JOINT LeftHandIndex1
								{
									OFFSET 0.750000 0.000000 0.000000
									CHANNELS 3 Zrotation Yrotation Xrotation
									End Site
									{
										OFFSET 0.000000 0.000000 0.000000
									}
								}
							}
						}
					}
				}
				JOINT RightShoulder
				{
					OFFSET 0.000000 0.000000 0.000000
					CHANNELS 3 Zrotation Yrotation Xrotation
					JOINT RightArm
					{
						OFFSET -2.700000 1.550000 -0.730000
						CHANNELS 3 Zrotation Yrotation Xrotation
						JOINT RightForeArm
						{
							OFFSET -5.450000 0.000000 0.000000
							CHANNELS 3 Zrotation Yrotation Xrotation
							JOINT RightHand
							{
								OFFSET -3.450000 0.000000 0.000000
								CHANNELS 3 Zrotation Yrotation Xrotation
								JOINT RightHandIndex1
								{
									OFFSET -0.750000 0.000000 0.000000
									CHANNELS 3 Zrotation Yrotation Xrotation
									End Site
									{
										OFFSET 0.000000 0.000000 0.000000
									}
								}
							}
						}
					}
				}
			}
		}
	}
}
MOTION
Frames: 9
Frame Time: 0.016667
-0.332970 16.826680 -6.614260 -1.001159 6.281813 11.895735 -15.167816 11.153912 4.053609 20.077891 0.583795 -36.505371 -5.987893 5.644475 8.311098 -0.220248 3.839425 3.046919 0.277540 0.227380 0.162950 18.413984 -10.813717 2.499016 -19.593631 2.391672 -4.646041 3.607631 -3.684156 2.129665 -0.238272 -4.340486 2.933963 0.222750 0.132340 0.104610 -3.883303 1.062425 -7.690840 4.460559 3.339455 8.343037 3.941812 2.673770 2.356005 1.454867 -1.548501 -4.716240 -1.450820 -0.115987 27.114499 -3.559770 0.581220 -6.514400 -15.742763 10.427288 1.790474 -53.515616 22.191978 -15.777108 -33.676448 -7.732815 -2.500434 -3.808467 2.964650 0.003360 0.167030 -0.091000 0.119740 13.317672 -3.826461 -1.217931 35.623598 18.459594 0.625190 -113.486746 50.154531 -74.203919 2.039143 -1.292567 -0.041080 0.080520 -0.084780 -0.053550 
-0.203550 16.803830 -6.563760 -1.878585 7.953514 12.504503 -15.226811 11.085081 4.176038 19.391234 0.370789 -38.211236 -5.919632 5.587925 8.475802 -0.203430 3.763916 3.079129 0.270490 0.220250 0.127780 18.376965 -10.765624 2.493577 -18.645440 2.412056 -4.075053 2.888480 -3.471531 1.572895 -0.240163 -4.302834 2.970020 0.211170 0.141840 0.091180 -3.745936 1.005402 -7.747058 3.234368 4.512875 8.966582 4.126923 4.174045 1.089176 1.407657 -1.498781 -4.406838 -1.482484 -1.987490 26.786025 -1.701290 -1.519110 -6.505900 -14.298137 12.310894 1.412874 -52.404461 23.618483 -16.217234 -36.727975 -8.693169 -2.222607 -3.743884 3.012124 -0.000250 0.147860 -0.101060 0.132540 11.795347 -5.546539 -1.308429 28.784899 12.848423 -3.502063 -99.350552 51.809919 -56.926409 1.899929 -0.997772 -0.034220 0.082530 -0.084840 -0.031110 
-0.062800 16.789200 -6.523470 -2.508817 9.660197 12.600239 -15.277553 11.138294 4.237266 18.084566 -0.071871 -39.719165 -5.304368 5.475519 9.268939 -0.190807 3.594218 3.145015 0.256830 0.201980 0.089600 18.319677 -10.734664 2.531971 -18.070733 2.445112 -3.160990 2.336805 -3.342387 1.080625 -0.255406 -4.302054 2.989977 0.185710 0.143460 0.073680 -3.600135 0.805948 -7.844305 2.325509 5.180432 10.118832 3.597878 5.255839 0.103675 1.575052 -1.924611 -4.447811 -2.390296 -2.756744 27.447799 0.310420 -3.236110 -6.429470 -13.406953 13.052939 1.411414 -51.434891 24.923329 -16.605640 -39.592308 -9.934040 -1.815767 -3.661892 3.063672 0.011340 0.113430 -0.101750 0.144150 10.446477 -5.819453 -1.257322 21.909121 7.312442 -6.942809 -80.571602 54.753416 -40.037996 1.785600 -0.919701 -0.027530 0.083370 -0.083010 -0.009110 
0.088020 16.773740 -6.477470 -2.975447 11.271945 12.748638 -15.305024 11.121648 4.296245 16.888029 -0.596537 -41.033576 -4.894929 5.346036 9.898227 -0.184951 3.457885 3.205798 0.235200 0.175300 0.047730 18.290214 -10.712494 2.576859 -17.834390 2.574294 -2.423912 1.949192 -3.241229 0.563869 -0.263784 -4.337282 2.995174 0.163340 0.161480 0.061500 -3.529330 0.752454 -7.915108 1.797178 5.813227 10.953504 2.494425 6.219363 -0.436304 2.028135 -1.986078 -4.659959 -2.592167 -3.554574 27.652417 1.984970 -4.863180 -6.149260 -12.965293 13.113408 1.319070 -50.346065 25.456176 -16.590975 -41.532473 -10.327678 -1.623814 -3.614988 3.099784 0.011820 0.098970 -0.114570 0.154260 8.967420 -5.753296 -0.851706 15.632021 2.332891 -8.156866 -56.860216 54.481830 -23.970287 1.939117 -1.289465 -0.028060 0.088780 -0.073240 0.011620 
0.244050 16.767380 -6.434880 -3.196576 12.377935 12.865055 -15.321744 11.104192 4.369361 15.912942 -1.104328 -42.153589 -4.805679 5.353307 10.889026 -0.180133 3.402654 3.234133 0.222300 0.158560 0.016860 18.265299 -10.714249 2.586992 -18.060948 2.766282 -2.234299 1.786011 -3.201315 0.610805 -0.256456 -4.336986 3.003393 0.150240 0.174210 0.046300 -3.483928 0.743704 -7.970308 1.441386 6.538707 11.950464 0.899368 7.227872 -0.580986 2.626918 -1.926823 -5.126279 -2.521168 -4.412673 27.264200 3.697850 -6.440380 -6.413620 -13.461178 12.404905 0.983833 -48.807570 25.002246 -16.183228 -42.331461 -10.165217 -1.617178 -3.578452 3.125179 0.015910 0.082040 -0.125030 0.162110 8.111471 -5.098601 0.317708 9.657193 -2.315541 -6.967915 -36.009943 50.571896 -12.458452 2.140127 -1.594528 -0.031230 0.099540 -0.066240 0.026970 
0.406240 16.768150 -6.394590 -3.073891 13.353900 12.716327 -15.299025 11.105184 4.429100 14.990609 -1.696131 -42.859350 -5.027458 5.529442 12.572478 -0.167640 3.435689 3.231793 0.203120 0.141130 -0.020860 18.267874 -10.792995 2.553058 -18.744803 2.920311 -2.252964 1.587137 -3.266277 1.453516 -0.235616 -4.337133 3.006685 0.137830 0.195420 0.031700 -3.547007 0.815484 -8.002483 1.758746 6.593015 12.689633 -1.357319 7.579097 0.193187 3.196962 -2.131569 -5.723552 -2.902935 -4.758374 27.270611 5.054020 -7.664150 -6.363320 -14.039654 11.077056 0.832629 -48.150971 24.093762 -16.073559 -41.961687 -9.954007 -1.728297 -3.565430 3.129517 0.011250 0.073580 -0.138840 0.170490 7.433458 -3.843660 1.589447 4.810770 -4.600376 -4.755566 -17.836090 44.471238 -4.390726 2.268760 -1.741890 -0.035000 0.114130 -0.055110 0.046410 
0.568410 16.775980 -6.358450 -2.733892 14.773308 12.293173 -15.273450 11.116046 4.555478 14.182074 -2.421583 -43.693792 -5.512019 5.926807 15.080567 -0.154017 3.605982 3.169640 0.193190 0.133560 -0.044680 18.272431 -10.965975 2.398351 -19.321286 2.837022 -2.677379 1.263474 -3.495299 3.879779 -0.194037 -4.283941 3.014951 0.132500 0.207000 0.027150 -3.631903 0.941815 -8.003114 2.179607 6.107309 13.375204 -3.646168 7.379802 1.268324 3.842132 -1.740646 -6.228168 -2.307962 -4.970304 27.667784 6.094220 -8.378240 -6.251890 -14.700797 9.327677 0.847988 -47.665743 22.752821 -15.866041 -41.272965 -9.429211 -1.964072 -3.564540 3.135726 0.010040 0.069650 -0.145200 0.173020 6.774317 -2.707574 2.503635 2.166192 -4.679945 -2.856969 -2.957713 37.991793 0.366086 2.327100 -1.797681 -0.035130 0.118960 -0.045050 0.057270 
0.724710 16.790080 -6.293220 -2.370625 14.637599 11.774494 -15.233838 11.037834 4.559041 14.256094 -2.636692 -43.543510 -6.715211 6.735556 17.837344 -0.104002 4.009012 3.016143 0.190990 0.140450 -0.064010 18.306161 -10.975317 2.434227 -20.754363 3.011780 -2.250797 1.958007 -3.720115 3.900440 -0.216198 -4.424498 2.960934 0.130740 0.211800 0.017030 -3.745569 1.104829 -8.044265 2.405388 5.853008 13.372552 -5.708911 7.370762 2.372794 4.245403 -1.671337 -6.568246 -2.299073 -4.326127 28.929285 7.336640 -8.498870 -6.083380 -15.332962 7.673363 1.125059 -47.503288 21.848983 -15.784623 -40.078471 -9.025543 -2.163338 -3.550090 3.128315 0.014310 0.058020 -0.141860 0.178360 6.609260 -1.354143 2.946243 0.440426 -3.315831 -1.585070 8.882315 31.750521 2.857943 2.361146 -1.811645 -0.032160 0.126310 -0.042250 0.068830 
0.877180 16.801360 -6.211710 -2.110049 14.233118 10.976345 -15.223636 10.997907 4.597472 14.660424 -2.690711 -43.212812 -8.237127 7.893329 20.976777 -0.030913 4.601616 2.788347 0.195080 0.139850 -0.044450 18.310426 -11.024418 2.396860 -21.743299 3.002070 -2.198123 2.269893 -3.964802 4.692185 -0.232795 -4.474134 2.928072 0.116820 0.183430 0.016290 -3.768510 1.252171 -8.070794 2.082935 5.877777 13.508652 -6.984584 7.499012 2.990061 4.712764 -1.070841 -7.037990 -1.387719 -4.033127 30.490207 7.737960 -8.159720 -5.965320 -15.235502 6.348145 1.418632 -48.044417 20.908435 -15.775285 -38.564602 -8.143099 -2.458718 -3.539403 3.098162 0.041450 0.035730 -0.115270 0.169860 5.632834 -0.458732 3.447887 0.903960 -2.023955 -0.998122 18.289769 27.164852 4.101431 2.375439 -1.821796 -0.025640 0.116000 -0.049940 0.058270 
